<svg version="1.1" viewBox="0.0 0.0 960.0 720.0" fill="none" stroke="none" stroke-linecap="square" stroke-miterlimit="10" xmlns:xlink="http://www.w3.org/1999/xlink" xmlns="http://www.w3.org/2000/svg"><clipPath id="p.0"><path d="m0 0l960.0 0l0 720.0l-960.0 0l0 -720.0z" clip-rule="nonzero"/></clipPath><g clip-path="url(#p.0)"><path fill="#000000" fill-opacity="0.0" d="m0 0l960.0 0l0 720.0l-960.0 0z" fill-rule="evenodd"/><path fill="#fff2cc" d="m2.4893916 66.88454l540.28345 261.4488l-540.28345 261.44882z" fill-rule="evenodd"/><path stroke="#000000" stroke-width="1.0" stroke-linejoin="round" stroke-linecap="butt" stroke-dasharray="1.0,3.0" d="m2.4893916 66.88454l540.28345 261.4488l-540.28345 261.44882z" fill-rule="evenodd"/><path fill="#fff2cc" d="m956.7571 517.7964l-413.98425 -186.97635l413.98425 -186.9764z" fill-rule="evenodd"/><path stroke="#000000" stroke-width="1.0" stroke-linejoin="round" stroke-linecap="butt" stroke-dasharray="1.0,3.0" d="m956.7571 517.7964l-413.98425 -186.97635l413.98425 -186.9764z" fill-rule="evenodd"/><path fill="#d9d9d9" d="m17.192804 302.74136l56.15748 0l0 56.15747l-56.15748 0z" fill-rule="evenodd"/><path stroke="#000000" stroke-width="2.0" stroke-linejoin="round" stroke-linecap="butt" d="m17.192804 302.74136l56.15748 0l0 56.15747l-56.15748 0z" fill-rule="evenodd"/><path fill="#d9d9d9" d="m151.72205 300.25467l56.157486 0l0 56.1575l-56.157486 0z" fill-rule="evenodd"/><path stroke="#000000" stroke-width="2.0" stroke-linejoin="round" stroke-linecap="butt" d="m151.72205 300.25467l56.157486 0l0 56.1575l-56.157486 0z" fill-rule="evenodd"/><path fill="#d9d9d9" d="m126.5147 182.86087l56.15748 0l0 56.157486l-56.15748 0z" fill-rule="evenodd"/><path stroke="#000000" stroke-width="2.0" stroke-linejoin="round" stroke-linecap="butt" d="m126.5147 182.86087l56.15748 0l0 56.157486l-56.15748 0z" fill-rule="evenodd"/><path fill="#d9d9d9" d="m156.73174 417.1025l56.157486 0l0 56.15747l-56.157486 0z" fill-rule="evenodd"/><path stroke="#000000" stroke-width="2.0" stroke-linejoin="round" stroke-linecap="butt" d="m156.73174 417.1025l56.157486 0l0 56.15747l-56.157486 0z" fill-rule="evenodd"/><path fill="#d9d9d9" d="m365.19434 474.64343l56.15747 0l0 56.15747l-56.15747 0z" fill-rule="evenodd"/><path stroke="#000000" stroke-width="2.0" stroke-linejoin="round" stroke-linecap="butt" d="m365.19434 474.64343l56.15747 0l0 56.15747l-56.15747 0z" fill-rule="evenodd"/><path fill="#d9d9d9" d="m371.2015 319.07986l56.15747 0l0 56.15747l-56.15747 0z" fill-rule="evenodd"/><path stroke="#000000" stroke-width="2.0" stroke-linejoin="round" stroke-linecap="butt" d="m371.2015 319.07986l56.15747 0l0 56.15747l-56.15747 0z" fill-rule="evenodd"/><path fill="#d9d9d9" d="m286.75754 240.04256l56.15747 0l0 56.157486l-56.15747 0z" fill-rule="evenodd"/><path stroke="#000000" stroke-width="2.0" stroke-linejoin="round" stroke-linecap="butt" d="m286.75754 240.04256l56.15747 0l0 56.157486l-56.15747 0z" fill-rule="evenodd"/><path fill="#d9d9d9" d="m532.6899 439.88586l56.15753 0l0 56.1575l-56.15753 0z" fill-rule="evenodd"/><path stroke="#000000" stroke-width="2.0" stroke-linejoin="round" stroke-linecap="butt" d="m532.6899 439.88586l56.15753 0l0 56.1575l-56.15753 0z" fill-rule="evenodd"/><path fill="#d9d9d9" d="m511.80545 301.2521l56.15744 0l0 56.15747l-56.15744 0z" fill-rule="evenodd"/><path stroke="#000000" stroke-width="2.0" stroke-linejoin="round" stroke-linecap="butt" d="m511.80545 301.2521l56.15744 0l0 56.15747l-56.15744 0z" fill-rule="evenodd"/><path fill="#000000" d="m532.9271 337.87085l3.59375 -17.1875l5.328125 0q1.453125 0 2.15625 0.125q1.140625 0.203125 1.921875 0.703125q0.796875 0.484375 1.234375 1.359375q0.4375 0.859375 0.4375 1.890625q0 1.421875 -0.78125 2.5q-0.78125 1.078125 -2.390625 1.640625q1.40625 0.453125 2.09375 1.375q0.6875 0.921875 0.6875 2.15625q0 1.421875 -0.8125 2.71875q-0.8125 1.296875 -2.15625 2.015625q-1.34375 0.703125 -3.0 0.703125l-8.3125 0zm4.359375 -9.84375l3.484375 0q2.484375 0 3.578125 -0.796875q1.109375 -0.796875 1.109375 -2.328125q0 -0.71875 -0.34375 -1.25q-0.34375 -0.53125 -0.921875 -0.765625q-0.5625 -0.234375 -2.125 -0.234375l-3.65625 0l-1.125 5.375zm-1.65625 7.890625l3.921875 0q1.546875 0 2.09375 -0.09375q1.09375 -0.1875 1.765625 -0.640625q0.6875 -0.453125 1.0625 -1.1875q0.390625 -0.75 0.390625 -1.546875q0 -1.21875 -0.765625 -1.84375q-0.75 -0.625 -2.859375 -0.625l-4.359375 0l-1.25 5.9375z" fill-rule="nonzero"/><path fill="#d9d9d9" d="m498.3533 203.04462l56.1575 0l0 56.15747l-56.1575 0z" fill-rule="evenodd"/><path stroke="#000000" stroke-width="2.0" stroke-linejoin="round" stroke-linecap="butt" d="m498.3533 203.04462l56.1575 0l0 56.15747l-56.1575 0z" fill-rule="evenodd"/><path fill="#d9d9d9" d="m662.70013 284.8831l56.15753 0l0 56.15747l-56.15753 0z" fill-rule="evenodd"/><path stroke="#000000" stroke-width="2.0" stroke-linejoin="round" stroke-linecap="butt" d="m662.70013 284.8831l56.15753 0l0 56.15747l-56.15753 0z" fill-rule="evenodd"/><path fill="#d9d9d9" d="m682.2661 514.5939l56.15747 0l0 56.15747l-56.15747 0z" fill-rule="evenodd"/><path stroke="#000000" stroke-width="2.0" stroke-linejoin="round" stroke-linecap="butt" d="m682.2661 514.5939l56.15747 0l0 56.15747l-56.15747 0z" fill-rule="evenodd"/><path fill="#d9d9d9" d="m845.6999 362.1756l56.15747 0l0 56.15747l-56.15747 0z" fill-rule="evenodd"/><path stroke="#000000" stroke-width="2.0" stroke-linejoin="round" stroke-linecap="butt" d="m845.6999 362.1756l56.15747 0l0 56.15747l-56.15747 0z" fill-rule="evenodd"/><path fill="#000000" d="m868.7392 395.7056l0.234375 1.453125q-0.6875 0.140625 -1.234375 0.140625q-0.890625 0 -1.390625 -0.28125q-0.484375 -0.28125 -0.6875 -0.734375q-0.203125 -0.46875 -0.203125 -1.9375l0 -5.578125l-1.203125 0l0 -1.265625l1.203125 0l0 -2.390625l1.625 -0.984375l0 3.375l1.65625 0l0 1.265625l-1.65625 0l0 5.671875q0 0.6875 0.078125 0.890625q0.09375 0.203125 0.28125 0.328125q0.203125 0.109375 0.578125 0.109375q0.265625 0 0.71875 -0.0625zm1.6051636 -10.0l0 -1.890625l1.640625 0l0 1.890625l-1.640625 0zm0 11.46875l0 -9.671875l1.640625 0l0 9.671875l-1.640625 0zm4.1448364 3.703125l0 -13.375l1.484375 0l0 1.25q0.53125 -0.734375 1.1875 -1.09375q0.671875 -0.375 1.625 -0.375q1.234375 0 2.171875 0.640625q0.953125 0.625 1.4375 1.796875q0.484375 1.15625 0.484375 2.546875q0 1.484375 -0.53125 2.671875q-0.53125 1.1875 -1.546875 1.828125q-1.015625 0.625 -2.140625 0.625q-0.8125 0 -1.46875 -0.34375q-0.65625 -0.34375 -1.0625 -0.875l0 4.703125l-1.640625 0zm1.484375 -8.484375q0 1.859375 0.75 2.765625q0.765625 0.890625 1.828125 0.890625q1.09375 0 1.875 -0.921875q0.78125 -0.9375 0.78125 -2.875q0 -1.84375 -0.765625 -2.765625q-0.75 -0.921875 -1.8125 -0.921875q-1.046875 0 -1.859375 0.984375q-0.796875 0.96875 -0.796875 2.84375z" fill-rule="nonzero"/><path fill="#d9d9d9" d="m813.5956 259.20273l56.15747 0l0 56.1575l-56.15747 0z" fill-rule="evenodd"/><path stroke="#000000" stroke-width="2.0" stroke-linejoin="round" stroke-linecap="butt" d="m813.5956 259.20273l56.15747 0l0 56.1575l-56.15747 0z" fill-rule="evenodd"/><path fill="#000000" d="m836.6349 292.73273l0.234375 1.453125q-0.6875 0.140625 -1.234375 0.140625q-0.890625 0 -1.390625 -0.28125q-0.484375 -0.28125 -0.6875 -0.734375q-0.203125 -0.46875 -0.203125 -1.9375l0 -5.578125l-1.203125 0l0 -1.265625l1.203125 0l0 -2.390625l1.625 -0.984375l0 3.375l1.65625 0l0 1.265625l-1.65625 0l0 5.671875q0 0.6875 0.078125 0.890625q0.09375 0.203125 0.28125 0.328125q0.203125 0.109375 0.578125 0.109375q0.265625 0 0.71875 -0.0625zm1.6051636 -10.0l0 -1.890625l1.640625 0l0 1.890625l-1.640625 0zm0 11.46875l0 -9.671875l1.640625 0l0 9.671875l-1.640625 0zm4.1448364 3.703125l0 -13.375l1.484375 0l0 1.25q0.53125 -0.734375 1.1875 -1.09375q0.671875 -0.375 1.625 -0.375q1.234375 0 2.171875 0.640625q0.953125 0.625 1.4375 1.796875q0.484375 1.15625 0.484375 2.546875q0 1.484375 -0.53125 2.671875q-0.53125 1.1875 -1.546875 1.828125q-1.015625 0.625 -2.140625 0.625q-0.8125 0 -1.46875 -0.34375q-0.65625 -0.34375 -1.0625 -0.875l0 4.703125l-1.640625 0zm1.484375 -8.484375q0 1.859375 0.75 2.765625q0.765625 0.890625 1.828125 0.890625q1.09375 0 1.875 -0.921875q0.78125 -0.9375 0.78125 -2.875q0 -1.84375 -0.765625 -2.765625q-0.75 -0.921875 -1.8125 -0.921875q-1.046875 0 -1.859375 0.984375q-0.796875 0.96875 -0.796875 2.84375z" fill-rule="nonzero"/><path fill="#000000" fill-opacity="0.0" d="m813.5956 287.28146l-94.74017 25.669312" fill-rule="evenodd"/><path stroke="#000000" stroke-width="2.0" stroke-linejoin="round" stroke-linecap="butt" d="m813.5956 287.28146l-83.157776 22.531128" fill-rule="evenodd"/><path fill="#000000" stroke="#000000" stroke-width="2.0" stroke-linecap="butt" d="m729.57385 306.62408l-7.8964233 5.5620728l9.624268 0.8149414z" fill-rule="evenodd"/><path fill="#000000" fill-opacity="0.0" d="m845.6999 390.25433l-126.834656 -77.29135" fill-rule="evenodd"/><path stroke="#000000" stroke-width="2.0" stroke-linejoin="round" stroke-linecap="butt" d="m845.6999 390.25433l-116.58746 -71.046814" fill-rule="evenodd"/><path fill="#000000" stroke="#000000" stroke-width="2.0" stroke-linecap="butt" d="m730.83154 316.38657l-9.469543 -1.9020996l6.031433 7.5440063z" fill-rule="evenodd"/><path fill="#000000" fill-opacity="0.0" d="m662.70013 312.96182l-108.188965 -81.82678" fill-rule="evenodd"/><path stroke="#000000" stroke-width="2.0" stroke-linejoin="round" stroke-linecap="butt" d="m662.7002 312.96182l-98.618164 -74.58806" fill-rule="evenodd"/><path fill="#000000" stroke="#000000" stroke-width="2.0" stroke-linecap="butt" d="m566.07477 235.73903l-9.231628 -2.8402557l5.246155 8.109741z" fill-rule="evenodd"/><path fill="#000000" fill-opacity="0.0" d="m845.6999 390.25433l-107.27557 152.40942" fill-rule="evenodd"/><path stroke="#000000" stroke-width="2.0" stroke-linejoin="round" stroke-linecap="butt" d="m845.6999 390.25433l-100.36859 142.5965" fill-rule="evenodd"/><path fill="#000000" stroke="#000000" stroke-width="2.0" stroke-linecap="butt" d="m742.6299 530.94946l-2.522705 9.323425l7.925476 -5.52063z" fill-rule="evenodd"/><path fill="#000000" fill-opacity="0.0" d="m662.70013 312.96182l-94.74011 16.37796" fill-rule="evenodd"/><path stroke="#000000" stroke-width="2.0" stroke-linejoin="round" stroke-linecap="butt" d="m662.7002 312.96182l-82.91559 14.333801" fill-rule="evenodd"/><path fill="#000000" stroke="#000000" stroke-width="2.0" stroke-linecap="butt" d="m579.2219 324.04044l-8.380859 4.8012695l9.506287 1.7091064z" fill-rule="evenodd"/><path fill="#000000" fill-opacity="0.0" d="m682.2661 542.6726l-93.41736 -74.70865" fill-rule="evenodd"/><path stroke="#000000" stroke-width="2.0" stroke-linejoin="round" stroke-linecap="butt" d="m682.26605 542.6726l-84.04559 -67.21387" fill-rule="evenodd"/><path fill="#000000" stroke="#000000" stroke-width="2.0" stroke-linecap="butt" d="m600.2836 472.87885l-9.151489 -3.0887756l5.0250244 8.248596z" fill-rule="evenodd"/><path fill="#000000" fill-opacity="0.0" d="m532.6899 467.9646l-105.322815 -120.81888" fill-rule="evenodd"/><path stroke="#000000" stroke-width="2.0" stroke-linejoin="round" stroke-linecap="butt" d="m532.68994 467.9646l-97.43753 -111.77338" fill-rule="evenodd"/><path fill="#000000" stroke="#000000" stroke-width="2.0" stroke-linecap="butt" d="m437.74255 354.02048l-8.454193 -4.6708374l3.473938 9.012329z" fill-rule="evenodd"/><path fill="#000000" fill-opacity="0.0" d="m532.6899 467.9646l-111.33856 34.771667" fill-rule="evenodd"/><path stroke="#000000" stroke-width="2.0" stroke-linejoin="round" stroke-linecap="butt" d="m532.68994 467.9646l-99.88422 31.194397" fill-rule="evenodd"/><path fill="#000000" stroke="#000000" stroke-width="2.0" stroke-linecap="butt" d="m431.82095 496.00574l-7.6787415 5.858917l9.648315 0.44760132z" fill-rule="evenodd"/><path fill="#000000" fill-opacity="0.0" d="m511.80545 329.33084l-84.44095 17.826782" fill-rule="evenodd"/><path stroke="#000000" stroke-width="2.0" stroke-linejoin="round" stroke-linecap="butt" d="m511.80545 329.33084l-72.69977 15.347992" fill-rule="evenodd"/><path fill="#000000" stroke="#000000" stroke-width="2.0" stroke-linecap="butt" d="m438.42334 341.44662l-8.19809 5.107025l9.562836 1.3574219z" fill-rule="evenodd"/><path fill="#000000" fill-opacity="0.0" d="m511.80545 329.33084l-168.8819 -61.19684" fill-rule="evenodd"/><path stroke="#000000" stroke-width="2.0" stroke-linejoin="round" stroke-linecap="butt" d="m511.80545 329.33084l-157.5998 -57.108612" fill-rule="evenodd"/><path fill="#000000" stroke="#000000" stroke-width="2.0" stroke-linecap="butt" d="m355.33112 269.1164l-9.658661 0.013702393l7.407776 6.1979675z" fill-rule="evenodd"/><path fill="#000000" fill-opacity="0.0" d="m498.3533 231.12335l-155.43307 37.007874" fill-rule="evenodd"/><path stroke="#000000" stroke-width="2.0" stroke-linejoin="round" stroke-linecap="butt" d="m498.3533 231.12335l-143.7594 34.228424" fill-rule="evenodd"/><path fill="#000000" stroke="#000000" stroke-width="2.0" stroke-linecap="butt" d="m353.82877 262.13815l-8.0642395 5.315857l9.594543 1.1114197z" fill-rule="evenodd"/><path fill="#000000" fill-opacity="0.0" d="m286.75754 268.1213l-104.09448 -57.19687" fill-rule="evenodd"/><path stroke="#000000" stroke-width="2.0" stroke-linejoin="round" stroke-linecap="butt" d="m286.75754 268.12128l-93.577545 -51.41809" fill-rule="evenodd"/><path fill="#000000" stroke="#000000" stroke-width="2.0" stroke-linecap="butt" d="m194.77083 213.808l-9.545319 -1.4755707l6.3636627 7.2659607z" fill-rule="evenodd"/><path fill="#000000" fill-opacity="0.0" d="m286.75754 268.1213l-78.866135 60.22046" fill-rule="evenodd"/><path stroke="#000000" stroke-width="2.0" stroke-linejoin="round" stroke-linecap="butt" d="m286.75754 268.12128l-69.32864 52.937866" fill-rule="evenodd"/><path fill="#000000" stroke="#000000" stroke-width="2.0" stroke-linecap="butt" d="m215.42406 318.4336l-5.208847 8.133759l9.218491 -2.8826294z" fill-rule="evenodd"/><path fill="#000000" fill-opacity="0.0" d="m286.75754 268.1213l-73.85826 177.07086" fill-rule="evenodd"/><path stroke="#000000" stroke-width="2.0" stroke-linejoin="round" stroke-linecap="butt" d="m286.75754 268.12128l-69.23868 165.99573" fill-rule="evenodd"/><path fill="#000000" stroke="#000000" stroke-width="2.0" stroke-linecap="butt" d="m214.46999 432.84528l-0.44514465 9.6484375l6.5428925 -7.1049805z" fill-rule="evenodd"/><path fill="#000000" fill-opacity="0.0" d="m365.19434 502.72217l-152.31497 -57.543304" fill-rule="evenodd"/><path stroke="#000000" stroke-width="2.0" stroke-linejoin="round" stroke-linecap="butt" d="m365.19434 502.72217l-141.08936 -53.3024" fill-rule="evenodd"/><path fill="#000000" stroke="#000000" stroke-width="2.0" stroke-linecap="butt" d="m225.27246 446.3295l-9.657974 -0.11734009l7.3230133 6.2979126z" fill-rule="evenodd"/><path fill="#000000" fill-opacity="0.0" d="m365.19434 502.72217l-157.32285 -174.3937" fill-rule="evenodd"/><path stroke="#000000" stroke-width="2.0" stroke-linejoin="round" stroke-linecap="butt" d="m365.19434 502.72217l-149.28487 -165.48352" fill-rule="evenodd"/><path fill="#000000" stroke="#000000" stroke-width="2.0" stroke-linecap="butt" d="m218.36234 335.02588l-8.532379 -4.526428l3.626648 8.951935z" fill-rule="evenodd"/><path fill="#000000" fill-opacity="0.0" d="m371.2015 347.1586l-158.29921 98.01575" fill-rule="evenodd"/><path stroke="#000000" stroke-width="2.0" stroke-linejoin="round" stroke-linecap="butt" d="m371.20154 347.15863l-148.09668 91.69852" fill-rule="evenodd"/><path fill="#000000" stroke="#000000" stroke-width="2.0" stroke-linecap="butt" d="m221.3658 436.0485l-5.977646 7.5867004l9.45578 -1.9693909z" fill-rule="evenodd"/><path fill="#000000" fill-opacity="0.0" d="m126.5147 210.9396l-53.16535 119.87402" fill-rule="evenodd"/><path stroke="#000000" stroke-width="2.0" stroke-linejoin="round" stroke-linecap="butt" d="m126.5147 210.9396l-48.300255 108.90448" fill-rule="evenodd"/><path fill="#000000" stroke="#000000" stroke-width="2.0" stroke-linecap="butt" d="m75.19466 318.5048l-0.65992737 9.636108l6.6995087 -6.957489z" fill-rule="evenodd"/><path fill="#000000" fill-opacity="0.0" d="m151.72205 328.33344l-78.3622 2.4881897" fill-rule="evenodd"/><path stroke="#000000" stroke-width="2.0" stroke-linejoin="round" stroke-linecap="butt" d="m151.72205 328.3334l-66.36824 2.1073608" fill-rule="evenodd"/><path fill="#000000" stroke="#000000" stroke-width="2.0" stroke-linecap="butt" d="m85.24896 327.13898l-8.966782 3.5898438l9.17646 3.013733z" fill-rule="evenodd"/><path fill="#000000" fill-opacity="0.0" d="m156.73174 445.18124l-83.37008 -114.36221" fill-rule="evenodd"/><path stroke="#000000" stroke-width="2.0" stroke-linejoin="round" stroke-linecap="butt" d="m156.73174 445.1812l-76.30107 -104.66531" fill-rule="evenodd"/><path fill="#000000" stroke="#000000" stroke-width="2.0" stroke-linecap="butt" d="m83.100105 338.5699l-8.016083 -5.388214l2.677208 9.280243z" fill-rule="evenodd"/><path fill="#000000" fill-opacity="0.0" d="m450.43164 138.0105l168.8819 0l0 44.850388l-168.8819 0z" fill-rule="evenodd"/><path fill="#000000" d="m482.69485 168.50363q-1.09375 0.953125 -2.125 1.390625q-1.015625 0.4375 -2.171875 0.4375q-1.71875 0 -2.78125 -1.015625q-1.046875 -1.015625 -1.046875 -2.59375q0 -1.046875 0.46875 -1.84375q0.46875 -0.8125 1.25 -1.296875q0.796875 -0.484375 1.9375 -0.6875q0.703125 -0.140625 2.703125 -0.21875q2.0 -0.09375 2.875 -0.4375q0.234375 -0.859375 0.234375 -1.4375q0 -0.734375 -0.53125 -1.15625q-0.734375 -0.59375 -2.15625 -0.59375q-1.34375 0 -2.1875 0.59375q-0.84375 0.59375 -1.234375 1.6875l-2.140625 -0.1875q0.65625 -1.859375 2.078125 -2.84375q1.421875 -0.984375 3.59375 -0.984375q2.296875 0 3.65625 1.109375q1.03125 0.8125 1.03125 2.125q0 1.0 -0.296875 2.3125l-0.6875 3.09375q-0.328125 1.484375 -0.328125 2.40625q0 0.578125 0.25 1.6875l-2.140625 0q-0.171875 -0.609375 -0.25 -1.546875zm0.78125 -4.765625q-0.4375 0.1875 -0.953125 0.28125q-0.5 0.09375 -1.703125 0.1875q-1.84375 0.171875 -2.609375 0.421875q-0.765625 0.25 -1.15625 0.8125q-0.375 0.546875 -0.375 1.203125q0 0.890625 0.609375 1.46875q0.609375 0.578125 1.75 0.578125q1.0625 0 2.03125 -0.546875q0.96875 -0.5625 1.53125 -1.5625q0.5625 -1.0 0.875 -2.84375zm4.1757812 6.3125l2.609375 -12.453125l1.921875 0l-0.46875 2.171875q1.265625 -1.28125 2.34375 -1.859375q1.09375 -0.59375 2.234375 -0.59375q1.515625 0 2.375 0.828125q0.859375 0.8125 0.859375 2.1875q0 0.6875 -0.3125 2.1875l-1.578125 7.53125l-2.125 0l1.65625 -7.890625q0.25 -1.140625 0.25 -1.703125q0 -0.609375 -0.4375 -1.0q-0.421875 -0.390625 -1.234375 -0.390625q-1.625 0 -2.90625 1.171875q-1.265625 1.171875 -1.859375 4.015625l-1.203125 5.796875l-2.125 0zm18.300781 -1.71875l-0.34375 1.734375q-0.765625 0.203125 -1.484375 0.203125q-1.265625 0 -2.015625 -0.625q-0.5625 -0.46875 -0.5625 -1.28125q0 -0.40625 0.3125 -1.890625l1.515625 -7.234375l-1.6875 0l0.34375 -1.640625l1.671875 0l0.65625 -3.046875l2.421875 -1.46875l-0.953125 4.515625l2.09375 0l-0.359375 1.640625l-2.078125 0l-1.4375 6.890625q-0.265625 1.3125 -0.265625 1.5625q0 0.375 0.21875 0.578125q0.21875 0.203125 0.703125 0.203125q0.703125 0 1.25 -0.140625zm4.7304688 -13.0625l0.5 -2.40625l2.1094055 0l-0.5 2.40625l-2.1094055 0zm-3.09375 14.78125l2.59375 -12.453125l2.1250305 0l-2.5937805 12.453125l-2.125 0zm14.003937 -4.53125l2.125 0.21875q-0.796875 2.328125 -2.28125 3.46875q-1.46875 1.125 -3.34375 1.125q-2.015625 0 -3.28125 -1.3125q-1.265625 -1.3125 -1.265625 -3.671875q0 -2.03125 0.8125 -4.0q0.8125 -1.96875 2.3125 -3.0q1.515625 -1.03125 3.4375 -1.03125q2.015625 0 3.1875 1.140625q1.171875 1.125 1.171875 2.984375l-2.09375 0.140625q-0.015625 -1.171875 -0.6875 -1.84375q-0.671875 -0.671875 -1.765625 -0.671875q-1.28125 0 -2.21875 0.8125q-0.9375 0.8125 -1.46875 2.453125q-0.53125 1.640625 -0.53125 3.171875q0 1.59375 0.703125 2.390625q0.703125 0.796875 1.734375 0.796875q1.03125 0 1.96875 -0.78125q0.9375 -0.796875 1.484375 -2.390625zm3.78125 -0.1875q0 -3.65625 2.140625 -6.046875q1.78125 -1.96875 4.640625 -1.96875q2.25 0 3.625 1.40625q1.390625 1.40625 1.390625 3.796875q0 2.15625 -0.875 4.0q-0.859375 1.84375 -2.46875 2.828125q-1.59375 0.984375 -3.359375 0.984375q-1.453125 0 -2.65625 -0.625q-1.1875 -0.625 -1.8125 -1.75q-0.625 -1.140625 -0.625 -2.625zm2.125 -0.21875q0 1.765625 0.84375 2.671875q0.84375 0.90625 2.140625 0.90625q0.6875 0 1.34375 -0.265625q0.671875 -0.28125 1.25 -0.84375q0.578125 -0.5625 0.96875 -1.28125q0.40625 -0.734375 0.65625 -1.5625q0.359375 -1.15625 0.359375 -2.21875q0 -1.6875 -0.84375 -2.625q-0.84375 -0.9375 -2.140625 -0.9375q-1.0 0 -1.828125 0.484375q-0.8125 0.46875 -1.46875 1.390625q-0.65625 0.90625 -0.96875 2.125q-0.3125 1.203125 -0.3125 2.15625zm10.847656 4.9375l2.609375 -12.453125l1.921875 0l-0.46875 2.171875q1.265625 -1.28125 2.34375 -1.859375q1.09375 -0.59375 2.234375 -0.59375q1.515625 0 2.375 0.828125q0.859375 0.8125 0.859375 2.1875q0 0.6875 -0.3125 2.1875l-1.578125 7.53125l-2.125 0l1.65625 -7.890625q0.25 -1.140625 0.25 -1.703125q0 -0.609375 -0.4375 -1.0q-0.421875 -0.390625 -1.234375 -0.390625q-1.625 0 -2.90625 1.171875q-1.265625 1.171875 -1.859375 4.015625l-1.203125 5.796875l-2.125 0zm22.488281 -4.234375l2.0625 0.21875q-0.4375 1.53125 -2.046875 2.921875q-1.59375 1.375 -3.8125 1.375q-1.375 0 -2.53125 -0.640625q-1.15625 -0.640625 -1.765625 -1.859375q-0.59375 -1.21875 -0.59375 -2.78125q0 -2.03125 0.9375 -3.9375q0.9375 -1.921875 2.4375 -2.859375q1.5 -0.9375 3.25 -0.9375q2.234375 0 3.5625 1.390625q1.328125 1.375 1.328125 3.765625q0 0.921875 -0.171875 1.875l-9.15625 0q-0.046875 0.375 -0.046875 0.65625q0 1.75 0.796875 2.671875q0.8125 0.921875 1.96875 0.921875q1.09375 0 2.140625 -0.71875q1.0625 -0.71875 1.640625 -2.0625zm-6.15625 -3.078125l6.984375 0q0 -0.328125 0 -0.46875q0 -1.59375 -0.796875 -2.4375q-0.796875 -0.859375 -2.046875 -0.859375q-1.359375 0 -2.484375 0.9375q-1.109375 0.9375 -1.65625 2.828125z" fill-rule="nonzero"/><path fill="#000000" d="m569.85504 175.09738q-1.734375 -2.203125 -2.953125 -5.15625q-1.203125 -2.953125 -1.203125 -6.109375q0 -2.796875 0.90625 -5.34375q1.046875 -2.96875 3.25 -5.90625l1.515625 0q-1.421875 2.4375 -1.875 3.46875q-0.71875 1.625 -1.125 3.375q-0.5 2.203125 -0.5 4.40625q0 5.640625 3.5 11.265625l-1.515625 0z" fill-rule="nonzero"/><path fill="#000000" d="m573.2847 170.0505l3.59375 -17.1875l5.328125 0q1.453125 0 2.15625 0.125q1.140625 0.203125 1.921875 0.703125q0.796875 0.484375 1.234375 1.359375q0.4375 0.859375 0.4375 1.890625q0 1.421875 -0.78125 2.5q-0.78125 1.078125 -2.390625 1.640625q1.40625 0.453125 2.09375 1.375q0.6875 0.921875 0.6875 2.15625q0 1.421875 -0.8125 2.71875q-0.8125 1.296875 -2.15625 2.015625q-1.34375 0.703125 -3.0 0.703125l-8.3125 0zm4.359375 -9.84375l3.484375 0q2.484375 0 3.578125 -0.796875q1.109375 -0.796875 1.109375 -2.328125q0 -0.71875 -0.34375 -1.25q-0.34375 -0.53125 -0.921875 -0.765625q-0.5625 -0.234375 -2.125 -0.234375l-3.65625 0l-1.125 5.375zm-1.65625 7.890625l3.921875 0q1.546875 0 2.09375 -0.09375q1.09375 -0.1875 1.765625 -0.640625q0.6875 -0.453125 1.0625 -1.1875q0.390625 -0.75 0.390625 -1.546875q0 -1.21875 -0.765625 -1.84375q-0.75 -0.625 -2.859375 -0.625l-4.359375 0l-1.25 5.9375z" fill-rule="nonzero"/><path fill="#000000" d="m591.2144 175.09738l-1.515625 0q3.5 -5.625 3.5 -11.265625q0 -2.203125 -0.5 -4.359375q-0.390625 -1.765625 -1.109375 -3.375q-0.453125 -1.0625 -1.890625 -3.515625l1.515625 0q2.203125 2.9375 3.25 5.90625q0.90625 2.546875 0.90625 5.34375q0 3.15625 -1.21875 6.109375q-1.203125 2.953125 -2.9375 5.15625z" fill-rule="nonzero"/><path fill="#000000" fill-opacity="0.0" d="m466.33716 522.21783l168.8819 0l0 44.850403l-168.8819 0z" fill-rule="evenodd"/><path fill="#000000" d="m498.60037 552.711q-1.09375 0.953125 -2.125 1.390625q-1.015625 0.4375 -2.171875 0.4375q-1.71875 0 -2.78125 -1.015625q-1.046875 -1.015625 -1.046875 -2.59375q0 -1.046875 0.46875 -1.84375q0.46875 -0.8125 1.25 -1.296875q0.796875 -0.484375 1.9375 -0.6875q0.703125 -0.140625 2.703125 -0.21875q2.0 -0.09375 2.875 -0.4375q0.234375 -0.859375 0.234375 -1.4375q0 -0.734375 -0.53125 -1.15625q-0.734375 -0.59375 -2.15625 -0.59375q-1.34375 0 -2.1875 0.59375q-0.84375 0.59375 -1.234375 1.6875l-2.140625 -0.1875q0.65625 -1.859375 2.078125 -2.84375q1.421875 -0.984375 3.59375 -0.984375q2.296875 0 3.65625 1.109375q1.03125 0.8125 1.03125 2.125q0 1.0 -0.296875 2.3125l-0.6875 3.09375q-0.328125 1.484375 -0.328125 2.40625q0 0.578125 0.25 1.6875l-2.140625 0q-0.171875 -0.609375 -0.25 -1.546875zm0.78125 -4.765625q-0.4375 0.1875 -0.953125 0.28125q-0.5 0.09375 -1.703125 0.1875q-1.84375 0.171875 -2.609375 0.421875q-0.765625 0.25 -1.15625 0.8125q-0.375 0.546875 -0.375 1.203125q0 0.890625 0.609375 1.46875q0.609375 0.578125 1.75 0.578125q1.0625 0 2.03125 -0.546875q0.96875 -0.5625 1.53125 -1.5625q0.5625 -1.0 0.875 -2.84375zm4.1757812 6.3125l2.609375 -12.453125l1.921875 0l-0.46875 2.171875q1.265625 -1.28125 2.34375 -1.859375q1.09375 -0.59375 2.2344055 -0.59375q1.515625 0 2.375 0.828125q0.859375 0.8125 0.859375 2.1875q0 0.6875 -0.3125 2.1875l-1.578125 7.53125l-2.1250305 0l1.6562805 -7.890625q0.25 -1.140625 0.25 -1.703125q0 -0.609375 -0.4375 -1.0q-0.421875 -0.390625 -1.2344055 -0.390625q-1.625 0 -2.90625 1.171875q-1.265625 1.171875 -1.859375 4.015625l-1.203125 5.796875l-2.125 0zm18.300812 -1.71875l-0.34375 1.734375q-0.765625 0.203125 -1.484375 0.203125q-1.265625 0 -2.015625 -0.625q-0.5625 -0.46875 -0.5625 -1.28125q0 -0.40625 0.3125 -1.890625l1.515625 -7.234375l-1.6875 0l0.34375 -1.640625l1.671875 0l0.65625 -3.046875l2.421875 -1.46875l-0.953125 4.515625l2.09375 0l-0.359375 1.640625l-2.078125 0l-1.4375 6.890625q-0.265625 1.3125 -0.265625 1.5625q0 0.375 0.21875 0.578125q0.21875 0.203125 0.703125 0.203125q0.703125 0 1.25 -0.140625zm4.7304688 -13.0625l0.5 -2.40625l2.109375 0l-0.5 2.40625l-2.109375 0zm-3.09375 14.78125l2.59375 -12.453125l2.125 0l-2.59375 12.453125l-2.125 0zm14.003906 -4.53125l2.125 0.21875q-0.796875 2.328125 -2.28125 3.46875q-1.46875 1.125 -3.34375 1.125q-2.015625 0 -3.28125 -1.3125q-1.265625 -1.3125 -1.265625 -3.671875q0 -2.03125 0.8125 -4.0q0.8125 -1.96875 2.3125 -3.0q1.515625 -1.03125 3.4375 -1.03125q2.015625 0 3.1875 1.140625q1.171875 1.125 1.171875 2.984375l-2.09375 0.140625q-0.015625 -1.171875 -0.6875 -1.84375q-0.671875 -0.671875 -1.765625 -0.671875q-1.28125 0 -2.21875 0.8125q-0.9375 0.8125 -1.46875 2.453125q-0.53125 1.640625 -0.53125 3.171875q0 1.59375 0.703125 2.390625q0.703125 0.796875 1.734375 0.796875q1.03125 0 1.96875 -0.78125q0.9375 -0.796875 1.484375 -2.390625zm3.78125 -0.1875q0 -3.65625 2.140625 -6.046875q1.78125 -1.96875 4.640625 -1.96875q2.25 0 3.625 1.40625q1.390625 1.40625 1.390625 3.796875q0 2.15625 -0.875 4.0q-0.859375 1.84375 -2.46875 2.828125q-1.59375 0.984375 -3.359375 0.984375q-1.453125 0 -2.65625 -0.625q-1.1875 -0.625 -1.8125 -1.75q-0.625 -1.140625 -0.625 -2.625zm2.125 -0.21875q0 1.765625 0.84375 2.671875q0.84375 0.90625 2.140625 0.90625q0.6875 0 1.34375 -0.265625q0.671875 -0.28125 1.25 -0.84375q0.578125 -0.5625 0.96875 -1.28125q0.40625 -0.734375 0.65625 -1.5625q0.359375 -1.15625 0.359375 -2.21875q0 -1.6875 -0.84375 -2.625q-0.84375 -0.9375 -2.140625 -0.9375q-1.0 0 -1.828125 0.484375q-0.8125 0.46875 -1.46875 1.390625q-0.65625 0.90625 -0.96875 2.125q-0.3125 1.203125 -0.3125 2.15625zm10.847656 4.9375l2.609375 -12.453125l1.921875 0l-0.46875 2.171875q1.265625 -1.28125 2.34375 -1.859375q1.09375 -0.59375 2.234375 -0.59375q1.515625 0 2.375 0.828125q0.859375 0.8125 0.859375 2.1875q0 0.6875 -0.3125 2.1875l-1.578125 7.53125l-2.125 0l1.65625 -7.890625q0.25 -1.140625 0.25 -1.703125q0 -0.609375 -0.4375 -1.0q-0.421875 -0.390625 -1.234375 -0.390625q-1.625 0 -2.90625 1.171875q-1.265625 1.171875 -1.859375 4.015625l-1.203125 5.796875l-2.125 0zm22.488281 -4.234375l2.0625 0.21875q-0.4375 1.53125 -2.046875 2.921875q-1.59375 1.375 -3.8125 1.375q-1.375 0 -2.53125 -0.640625q-1.15625 -0.640625 -1.765625 -1.859375q-0.59375 -1.21875 -0.59375 -2.78125q0 -2.03125 0.9375 -3.9375q0.9375 -1.921875 2.4375 -2.859375q1.5 -0.9375 3.25 -0.9375q2.234375 0 3.5625 1.390625q1.328125 1.375 1.328125 3.765625q0 0.921875 -0.171875 1.875l-9.15625 0q-0.046875 0.375 -0.046875 0.65625q0 1.75 0.796875 2.671875q0.8125 0.921875 1.96875 0.921875q1.09375 0 2.140625 -0.71875q1.0625 -0.71875 1.640625 -2.0625zm-6.15625 -3.078125l6.984375 0q0 -0.328125 0 -0.46875q0 -1.59375 -0.796875 -2.4375q-0.796875 -0.859375 -2.046875 -0.859375q-1.359375 0 -2.484375 0.9375q-1.109375 0.9375 -1.65625 2.828125z" fill-rule="nonzero"/><path fill="#000000" d="m585.76056 559.30475q-1.734375 -2.203125 -2.953125 -5.15625q-1.203125 -2.953125 -1.203125 -6.109375q0 -2.796875 0.90625 -5.34375q1.046875 -2.96875 3.25 -5.90625l1.515625 0q-1.421875 2.4375 -1.875 3.46875q-0.71875 1.625 -1.125 3.375q-0.5 2.203125 -0.5 4.40625q0 5.640625 3.5 11.265625l-1.515625 0z" fill-rule="nonzero"/><path fill="#000000" d="m589.19025 554.2579l3.59375 -17.1875l5.328125 0q1.453125 0 2.15625 0.125q1.140625 0.203125 1.921875 0.703125q0.796875 0.484375 1.234375 1.359375q0.4375 0.859375 0.4375 1.890625q0 1.421875 -0.78125 2.5q-0.78125 1.078125 -2.390625 1.640625q1.40625 0.453125 2.09375 1.375q0.6875 0.921875 0.6875 2.15625q0 1.421875 -0.8125 2.71875q-0.8125 1.296875 -2.15625 2.015625q-1.34375 0.703125 -3.0 0.703125l-8.3125 0zm4.359375 -9.84375l3.484375 0q2.484375 0 3.578125 -0.796875q1.109375 -0.796875 1.109375 -2.328125q0 -0.71875 -0.34375 -1.25q-0.34375 -0.53125 -0.921875 -0.765625q-0.5625 -0.234375 -2.125 -0.234375l-3.65625 0l-1.125 5.375zm-1.65625 7.890625l3.921875 0q1.546875 0 2.09375 -0.09375q1.09375 -0.1875 1.765625 -0.640625q0.6875 -0.453125 1.0625 -1.1875q0.390625 -0.75 0.390625 -1.546875q0 -1.21875 -0.765625 -1.84375q-0.75 -0.625 -2.859375 -0.625l-4.359375 0l-1.25 5.9375z" fill-rule="nonzero"/><path fill="#000000" d="m607.11993 559.30475l-1.515625 0q3.5 -5.625 3.5 -11.265625q0 -2.203125 -0.5 -4.359375q-0.390625 -1.765625 -1.109375 -3.375q-0.453125 -1.0625 -1.890625 -3.515625l1.515625 0q2.203125 2.9375 3.25 5.90625q0.90625 2.546875 0.90625 5.34375q0 3.15625 -1.21875 6.109375q-1.203125 2.953125 -2.9375 5.15625z" fill-rule="nonzero"/><path fill="#000000" fill-opacity="0.0" d="m2.4893916 150.19423l111.33858 0l0 44.850388l-111.33858 0z" fill-rule="evenodd"/><path fill="#000000" d="m19.23095 186.99985l3.609375 -17.21875l1.953125 0l-0.359375 1.734375q1.078125 -1.125 1.9375 -1.5625q0.875 -0.453125 1.828125 -0.453125q1.78125 0 2.953125 1.296875q1.171875 1.296875 1.171875 3.71875q0 1.9375 -0.640625 3.546875q-0.640625 1.59375 -1.578125 2.5625q-0.9375 0.96875 -1.90625 1.4375q-0.953125 0.453125 -1.96875 0.453125q-2.234375 0 -3.46875 -2.28125l-1.40625 6.765625l-2.125 0zm4.203125 -9.859375q0 1.40625 0.203125 1.9375q0.28125 0.765625 0.953125 1.234375q0.671875 0.46875 1.546875 0.46875q1.828125 0 2.953125 -2.046875q1.125 -2.0625 1.125 -4.21875q0 -1.578125 -0.765625 -2.4375q-0.75 -0.859375 -1.875 -0.859375q-0.796875 0 -1.5 0.4375q-0.6875 0.421875 -1.28125 1.265625q-0.59375 0.84375 -0.984375 2.078125q-0.375 1.234375 -0.375 2.140625zm18.582031 3.546875q-1.09375 0.953125 -2.125 1.390625q-1.015625 0.4375 -2.171875 0.4375q-1.71875 0 -2.78125 -1.015625q-1.046875 -1.015625 -1.046875 -2.59375q0 -1.046875 0.46875 -1.84375q0.46875 -0.8125 1.25 -1.296875q0.796875 -0.484375 1.9375 -0.6875q0.703125 -0.140625 2.703125 -0.21875q2.0 -0.09375 2.875 -0.4375q0.234375 -0.859375 0.234375 -1.4375q0 -0.734375 -0.53125 -1.15625q-0.734375 -0.59375 -2.15625 -0.59375q-1.34375 0 -2.1875 0.59375q-0.84375 0.59375 -1.234375 1.6875l-2.140625 -0.1875q0.65625 -1.859375 2.078125 -2.84375q1.421875 -0.984375 3.59375 -0.984375q2.296875 0 3.65625 1.109375q1.03125 0.8125 1.03125 2.125q0 1.0 -0.296875 2.3125l-0.6875 3.09375q-0.328125 1.484375 -0.328125 2.40625q0 0.578125 0.25 1.6875l-2.140625 0q-0.171875 -0.609375 -0.25 -1.546875zm0.78125 -4.765625q-0.4375 0.1875 -0.953125 0.28125q-0.5 0.09375 -1.703125 0.1875q-1.84375 0.171875 -2.609375 0.421875q-0.765625 0.25 -1.15625 0.8125q-0.375 0.546875 -0.375 1.203125q0 0.890625 0.609375 1.46875q0.609375 0.578125 1.75 0.578125q1.0625 0 2.03125 -0.546875q0.96875 -0.5625 1.53125 -1.5625q0.5625 -1.0 0.875 -2.84375zm4.3789062 2.0625l2.125 -0.140625q0 0.921875 0.28125 1.5625q0.28125 0.640625 1.03125 1.0625q0.75 0.40625 1.765625 0.40625q1.40625 0 2.109375 -0.5625q0.703125 -0.5625 0.703125 -1.328125q0 -0.546875 -0.421875 -1.046875q-0.4375 -0.484375 -2.125 -1.203125q-1.671875 -0.71875 -2.140625 -1.015625q-0.78125 -0.484375 -1.1875 -1.125q-0.390625 -0.65625 -0.390625 -1.5q0 -1.484375 1.171875 -2.53125q1.171875 -1.0625 3.28125 -1.0625q2.34375 0 3.5625 1.09375q1.21875 1.078125 1.265625 2.84375l-2.0625 0.140625q-0.046875 -1.125 -0.796875 -1.78125q-0.75 -0.65625 -2.125 -0.65625q-1.109375 0 -1.71875 0.515625q-0.609375 0.5 -0.609375 1.078125q0 0.59375 0.53125 1.03125q0.359375 0.3125 1.8125 0.9375q2.4375 1.0625 3.078125 1.671875q1.0 0.96875 1.0 2.359375q0 0.9375 -0.5625 1.828125q-0.5625 0.890625 -1.734375 1.421875q-1.171875 0.53125 -2.75 0.53125q-2.15625 0 -3.671875 -1.0625q-1.5 -1.078125 -1.421875 -3.46875zm16.75 2.53125l-0.34375 1.734375q-0.765625 0.203125 -1.484375 0.203125q-1.265625 0 -2.015625 -0.625q-0.5625 -0.46875 -0.5625 -1.28125q0 -0.40625 0.3125 -1.890625l1.515625 -7.234375l-1.6875 0l0.34375 -1.640625l1.671875 0l0.65625 -3.046875l2.421875 -1.46875l-0.953125 4.515625l2.09375 0l-0.359375 1.640625l-2.078125 0l-1.4375 6.890625q-0.265625 1.3125 -0.265625 1.5625q0 0.375 0.21875 0.578125q0.21875 0.203125 0.703125 0.203125q0.703125 0 1.25 -0.140625z" fill-rule="nonzero"/><path fill="#000000" d="m70.45361 187.2811q-1.734375 -2.203125 -2.953125 -5.15625q-1.2031326 -2.953125 -1.2031326 -6.109375q0 -2.796875 0.9062576 -5.34375q1.046875 -2.96875 3.25 -5.90625l1.515625 0q-1.421875 2.4375 -1.875 3.46875q-0.71875 1.625 -1.125 3.375q-0.5 2.203125 -0.5 4.40625q0 5.640625 3.5 11.265625l-1.515625 0z" fill-rule="nonzero"/><path fill="#000000" d="m73.8833 182.23422l3.59375 -17.1875l5.328125 0q1.453125 0 2.15625 0.125q1.140625 0.203125 1.921875 0.703125q0.796875 0.484375 1.234375 1.359375q0.4375 0.859375 0.4375 1.890625q0 1.421875 -0.78125 2.5q-0.78125 1.078125 -2.390625 1.640625q1.40625 0.453125 2.09375 1.375q0.6875 0.921875 0.6875 2.15625q0 1.421875 -0.8125 2.71875q-0.8125 1.296875 -2.15625 2.015625q-1.34375 0.703125 -3.0 0.703125l-8.3125 0zm4.359375 -9.84375l3.484375 0q2.484375 0 3.578125 -0.796875q1.109375 -0.796875 1.109375 -2.328125q0 -0.71875 -0.34375 -1.25q-0.34375 -0.53125 -0.921875 -0.765625q-0.5625 -0.234375 -2.125 -0.234375l-3.65625 0l-1.125 5.375zm-1.65625 7.890625l3.921875 0q1.546875 0 2.09375 -0.09375q1.09375 -0.1875 1.765625 -0.640625q0.6875 -0.453125 1.0625 -1.1875q0.390625 -0.75 0.390625 -1.546875q0 -1.21875 -0.765625 -1.84375q-0.75 -0.625 -2.859375 -0.625l-4.359375 0l-1.25 5.9375z" fill-rule="nonzero"/><path fill="#000000" d="m91.81299 187.2811l-1.515625 0q3.5 -5.625 3.5 -11.265625q0 -2.203125 -0.5 -4.359375q-0.390625 -1.765625 -1.109375 -3.375q-0.453125 -1.0625 -1.890625 -3.515625l1.515625 0q2.203125 2.9375 3.25 5.90625q0.90625 2.546875 0.90625 5.34375q0 3.15625 -1.21875 6.109375q-1.203125 2.953125 -2.9375 5.15625z" fill-rule="nonzero"/><path fill="#000000" fill-opacity="0.0" d="m819.7571 188.51443l126.834656 0l0 44.850388l-126.834656 0z" fill-rule="evenodd"/><path fill="#000000" d="m837.58655 220.55444l2.265625 -10.8125l-1.90625 0l0.34375 -1.640625l1.890625 0l0.375 -1.765625q0.28125 -1.328125 0.578125 -1.90625q0.296875 -0.59375 0.96875 -0.96875q0.671875 -0.375 1.828125 -0.375q0.8125 0 2.34375 0.328125l-0.375 1.859375q-1.078125 -0.28125 -1.8125 -0.28125q-0.625 0 -0.953125 0.3125q-0.3125 0.3125 -0.546875 1.46875l-0.28125 1.328125l2.375 0l-0.34375 1.640625l-2.375 0l-2.25 10.8125l-2.125 0zm14.871094 -2.25q-2.234375 2.53125 -4.578125 2.53125q-1.453125 0 -2.34375 -0.828125q-0.875 -0.828125 -0.875 -2.015625q0 -0.796875 0.40625 -2.703125l1.5 -7.1875l2.109375 0l-1.65625 7.96875q-0.21875 0.984375 -0.21875 1.546875q0 0.703125 0.421875 1.09375q0.4375 0.390625 1.265625 0.390625q0.890625 0 1.734375 -0.4375q0.859375 -0.4375 1.46875 -1.171875q0.625 -0.734375 1.015625 -1.75q0.25 -0.640625 0.59375 -2.25l1.125 -5.390625l2.125 0l-2.609375 12.453125l-1.953125 0l0.46875 -2.25zm9.800781 0.53125l-0.34375 1.734375q-0.765625 0.203125 -1.484375 0.203125q-1.265625 0 -2.015625 -0.625q-0.5625 -0.46875 -0.5625 -1.28125q0 -0.40625 0.3125 -1.890625l1.515625 -7.234375l-1.6875 0l0.34375 -1.640625l1.671875 0l0.65625 -3.046875l2.421875 -1.46875l-0.953125 4.515625l2.09375 0l-0.359375 1.640625l-2.078125 0l-1.4375 6.890625q-0.265625 1.3125 -0.265625 1.5625q0 0.375 0.21875 0.578125q0.21875 0.203125 0.703125 0.203125q0.703125 0 1.25 -0.140625zm10.214844 -0.53125q-2.234375 2.53125 -4.578125 2.53125q-1.453125 0 -2.34375 -0.828125q-0.875 -0.828125 -0.875 -2.015625q0 -0.796875 0.40625 -2.703125l1.5 -7.1875l2.109375 0l-1.65625 7.96875q-0.21875 0.984375 -0.21875 1.546875q0 0.703125 0.421875 1.09375q0.4375 0.390625 1.265625 0.390625q0.890625 0 1.734375 -0.4375q0.859375 -0.4375 1.46875 -1.171875q0.625 -0.734375 1.015625 -1.75q0.25 -0.640625 0.59375 -2.25l1.125 -5.390625l2.125 0l-2.609375 12.453125l-1.953125 0l0.46875 -2.25zm4.8476562 2.25l2.609375 -12.453125l1.875 0l-0.53125 2.546875q0.953125 -1.4375 1.875 -2.125q0.921875 -0.703125 1.890625 -0.703125q0.625 0 1.546875 0.46875l-0.859375 1.96875q-0.546875 -0.40625 -1.203125 -0.40625q-1.125 0 -2.296875 1.25q-1.171875 1.234375 -1.828125 4.453125l-1.0625 5.0l-2.015625 0zm17.132812 -4.234375l2.0625 0.21875q-0.4375 1.53125 -2.046875 2.921875q-1.59375 1.375 -3.8125 1.375q-1.375 0 -2.53125 -0.640625q-1.15625 -0.640625 -1.765625 -1.859375q-0.59375 -1.21875 -0.59375 -2.78125q0 -2.03125 0.9375 -3.9375q0.9375 -1.921875 2.4375 -2.859375q1.5 -0.9375 3.25 -0.9375q2.234375 0 3.5625 1.390625q1.328125 1.375 1.328125 3.765625q0 0.921875 -0.171875 1.875l-9.15625 0q-0.046875 0.375 -0.046875 0.65625q0 1.75 0.796875 2.671875q0.8125 0.921875 1.96875 0.921875q1.09375 0 2.140625 -0.71875q1.0625 -0.71875 1.640625 -2.0625zm-6.15625 -3.078125l6.984375 0q0 -0.328125 0 -0.46875q0 -1.59375 -0.796875 -2.4375q-0.796875 -0.859375 -2.046875 -0.859375q-1.359375 0 -2.484375 0.9375q-1.109375 0.9375 -1.65625 2.828125z" fill-rule="nonzero"/><path fill="#000000" d="m903.47327 225.60132q-1.734375 -2.203125 -2.953125 -5.15625q-1.203125 -2.953125 -1.203125 -6.109375q0 -2.796875 0.90625 -5.34375q1.046875 -2.96875 3.25 -5.90625l1.515625 0q-1.421875 2.4375 -1.875 3.46875q-0.71875 1.625 -1.125 3.375q-0.5 2.203125 -0.5 4.40625q0 5.640625 3.5 11.265625l-1.515625 0z" fill-rule="nonzero"/><path fill="#000000" d="m906.90295 220.55444l3.59375 -17.1875l5.328125 0q1.453125 0 2.15625 0.125q1.140625 0.203125 1.921875 0.703125q0.796875 0.484375 1.234375 1.359375q0.4375 0.859375 0.4375 1.890625q0 1.421875 -0.78125 2.5q-0.78125 1.078125 -2.390625 1.640625q1.40625 0.453125 2.09375 1.375q0.6875 0.921875 0.6875 2.15625q0 1.421875 -0.8125 2.71875q-0.8125 1.296875 -2.15625 2.015625q-1.34375 0.703125 -3.0 0.703125l-8.3125 0zm4.359375 -9.84375l3.484375 0q2.484375 0 3.578125 -0.796875q1.109375 -0.796875 1.109375 -2.328125q0 -0.71875 -0.34375 -1.25q-0.34375 -0.53125 -0.921875 -0.765625q-0.5625 -0.234375 -2.125 -0.234375l-3.65625 0l-1.125 5.375zm-1.65625 7.890625l3.921875 0q1.546875 0 2.09375 -0.09375q1.09375 -0.1875 1.765625 -0.640625q0.6875 -0.453125 1.0625 -1.1875q0.390625 -0.75 0.390625 -1.546875q0 -1.21875 -0.765625 -1.84375q-0.75 -0.625 -2.859375 -0.625l-4.359375 0l-1.25 5.9375z" fill-rule="nonzero"/><path fill="#000000" d="m924.83264 225.60132l-1.515625 0q3.5 -5.625 3.5 -11.265625q0 -2.203125 -0.5 -4.359375q-0.390625 -1.765625 -1.109375 -3.375q-0.453125 -1.0625 -1.890625 -3.515625l1.515625 0q2.203125 2.9375 3.25 5.90625q0.90625 2.546875 0.90625 5.34375q0 3.15625 -1.21875 6.109375q-1.203125 2.953125 -2.9375 5.15625z" fill-rule="nonzero"/></g></svg>